<svg xmlns="http://www.w3.org/2000/svg" width="100" height="100" viewBox="0 0 100 100"><path d="M45.995 25.564v9.624c0 1.305-1.058 2.363-2.363 2.363-4.657 0-7.19 4.776-7.541 14.203h7.541c1.305 0 2.363 1.059 2.363 2.363v20.32c0 1.305-1.058 2.363-2.363 2.363h-20.106c-1.306 0-2.363-1.059-2.363-2.363v-20.32c0-4.519.455-8.666 1.352-12.327.92-3.754 2.332-7.036 4.196-9.756 1.918-2.795 4.317-4.988 7.131-6.516 2.833-1.537 6.127-2.317 9.791-2.317 1.304 0 2.362 1.058 2.362 2.363zm30.479 11.987c1.305 0 2.363-1.059 2.363-2.363v-9.624c0-1.305-1.058-2.363-2.363-2.363-3.663 0-6.957.78-9.79 2.317-2.814 1.528-5.214 3.721-7.132 6.516-1.864 2.72-3.276 6.002-4.196 9.757-.896 3.662-1.351 7.809-1.351 12.326v20.32c0 1.305 1.058 2.363 2.363 2.363h20.105c1.305 0 2.363-1.059 2.363-2.363v-20.32c0-1.305-1.058-2.363-2.363-2.363h-7.433c.346-9.427 2.842-14.203 7.434-14.203z"/></svg>