<svg xmlns="http://www.w3.org/2000/svg" viewBox="0 0 134.6 9" enable-background="new 0 0 134.6 9"><path d="M0 8.8v-8.5h4.5c2 0 3.1 1.3 3.1 2.9 0 1.6-1.1 2.9-3.1 2.9h-2v2.7h-2.5zm5-5.6c0-.5-.3-.7-.8-.7h-1.6v1.3h1.6c.4 0 .8-.2.8-.6zM8.4 8.8v-8.5h2.6v6.3h3.2v2.2h-5.8zM21.2 8.8l-.3-1h-3.1l-.3 1h-2.9l3.1-8.5h3.3l3.1 8.5h-2.9zm-1.8-6l-.8 2.7h1.7l-.9-2.7zM24 7.6l1.3-1.9c.6.6 1.6 1.1 2.7 1.1.5 0 .9-.1.9-.5 0-.8-4.7 0-4.7-3.3 0-1.4 1.2-2.8 3.5-2.8 1.4 0 2.6.4 3.6 1.2l-1.3 1.7c-.7-.6-1.7-.8-2.5-.8-.5 0-.6.2-.6.4 0 .8 4.7.1 4.7 3.3 0 1.9-1.4 3-3.7 3-1.8-.1-3-.6-3.9-1.4zM34 8.8v-6.3h-2.3v-2.2h7.1v2.2h-2.3v6.3h-2.5zM39.7 8.8v-8.5h2.6v8.5h-2.6zM43.2 4.5c0-2.6 2-4.4 4.7-4.4 2.2 0 3.3 1.3 3.9 2.5l-2.2 1c-.2-.7-.9-1.2-1.6-1.2-1.2 0-2.1.9-2.1 2.1s.8 2.1 2.1 2.1c.8 0 1.4-.6 1.6-1.2l2.2 1c-.5 1.1-1.6 2.5-3.9 2.5-2.7 0-4.7-1.8-4.7-4.4zM60.1 8.8v-5.2l-1.9 5.1h-1.2l-1.9-5.1v5.1h-2.6v-8.4h3.6l1.5 4.1 1.5-4.1h3.6v8.5h-2.6zM64 8.8v-8.5h2.6v8.5h-2.6zM73.7 8.8l-3.1-4.3v4.3h-2.6v-8.5h2.6l3 4v-4h2.6v8.5h-2.5zM77.5 8.8v-8.5h3.8c2.7 0 4.7 1.5 4.7 4.2s-2 4.3-4.6 4.3h-3.9zm5.9-4.3c0-1.1-.7-2-2-2h-1.2v4h1.2c1.2 0 2-.9 2-2zM86.2 9l3-9h.6l-3 9h-.6zM87.9 9l3-9h.6l-3 9h-.6zM92.5 8.8v-8.5h2.7c2.6 0 4.3 1.9 4.3 4.3s-1.7 4.2-4.3 4.2h-2.7zm6.3-4.3c0-2-1.3-3.6-3.5-3.6h-2v7.2h2c2.2 0 3.5-1.6 3.5-3.6zM101.3 8.8v-8.5h5.4v.7h-4.7v3.1h4.6v.7h-4.6v3.4h4.7v.7h-5.4zM108 7.6l.5-.5c.5.6 1.4 1.2 2.7 1.2 1.7 0 2.2-1 2.2-1.7 0-2.5-5.1-1.2-5.1-4.2 0-1.4 1.2-2.3 2.8-2.3 1.3 0 2.2.4 2.9 1.2l-.5.5c-.6-.7-1.5-1.1-2.4-1.1-1.1 0-2 .6-2 1.6 0 2.2 5.1 1 5.1 4.2 0 1.1-.7 2.4-3 2.4-1.4 0-2.5-.6-3.2-1.3zM115.9 8.8v-8.5h.7v8.5h-.7zM118.4 4.5c0-2.6 1.9-4.4 4.3-4.4 1.4 0 2.4.6 3.2 1.5l-.5.4c-.6-.7-1.6-1.2-2.6-1.2-2 0-3.5 1.5-3.5 3.7s1.6 3.7 3.5 3.7c1.1 0 2-.6 2.5-1v-2h-3.3v-.7h3.9v3c-.8.8-1.9 1.4-3.2 1.4-2.4 0-4.3-1.8-4.3-4.4zM133.9 8.8l-5.3-7.3v7.3h-.7v-8.5h.7l5.3 7.2v-7.2h.7v8.5h-.7z"/></svg>